# xmcd CD database file
#
# Track frame offsets:
#	150
#	24000
#	50400
#	76453
#	117035
#	150411
#	183666
#	217577
#	237714
#	266910
#
# Disc length: 4075 seconds
#
# Revision: 0
# Processed by: cddbd v1.5.2PL0 Copyright (c) Steve Scherf et al.
# Submitted via: CDex 1.79
#
DISCID=7a0fe90a
DTITLE=Various Performers - This Is Venus Jazz: 80 Gold Discs From 1993 To 2000. Vol. 1 [CD1]
DYEAR=2013
DGENRE=Jazz
TTITLE0=Marion Brown Quintet - Ode To Coltrane
TTITLE1=The Moffett Family Jazz Band - My Shirley Jean
TTITLE2=Barney Wilen Quartet - You'd Be So Nice To Come Home To
TTITLE3=Masahiko Togashi and J.J.Spirits - Autumn In New York
TTITLE4=Satolu Oda and Hank Jones Great Jazz Quintet - Bernie's Tune
TTITLE5=Barney Wilen Quintet - Besame Mucho
TTITLE6=Archie Shepp Quartet - If I Should Lose You
TTITLE7=Richie Cole - Maria
TTITLE8=Lee Konitz and The Brazilian Band - Once I Loved
TTITLE9=Archie Shepp Quartet - Everything Must Change
EXTD=YEAR: 2013
EXTT0=
EXTT1=
EXTT2=
EXTT3=
EXTT4=
EXTT5=
EXTT6=
EXTT7=
EXTT8=
EXTT9=
PLAYORDER=
